<svg width="14" height="20" viewBox="0 0 14 20" fill="none" xmlns="http://www.w3.org/2000/svg">
<path d="M11.1667 0C11.6269 0 12 0.373096 12 0.833333V2.5C12 2.96024 11.6269 3.33333 11.1667 3.33333C10.7064 3.33333 10.3333 2.96024 10.3333 2.5V0.833333C10.3333 0.373096 10.7064 0 11.1667 0Z" fill="#777E91"/>
<path d="M11.1667 10C11.6269 10 12 10.3731 12 10.8333V15.8333C12 16.2936 11.6269 16.6667 11.1667 16.6667C10.7064 16.6667 10.3333 16.2936 10.3333 15.8333V10.8333C10.3333 10.3731 10.7064 10 11.1667 10Z" fill="#777E91"/>
<path d="M2.83333 3.33333C3.29357 3.33333 3.66667 3.70643 3.66667 4.16667V10.8333C3.66667 11.2936 3.29357 11.6667 2.83333 11.6667C2.3731 11.6667 2 11.2936 2 10.8333V4.16667C2 3.70643 2.3731 3.33333 2.83333 3.33333Z" fill="#777E91"/>
<path d="M2.83333 15C3.29357 15 3.66667 15.3731 3.66667 15.8333V19.1667C3.66667 19.6269 3.29357 20 2.83333 20C2.3731 20 2 19.6269 2 19.1667V15.8333C2 15.3731 2.3731 15 2.83333 15Z" fill="#777E91"/>
<path fill-rule="evenodd" clip-rule="evenodd" d="M8.66665 4.16675C8.66665 2.78604 9.78593 1.66675 11.1666 1.66675C12.5474 1.66675 13.6666 2.78604 13.6666 4.16675V9.16675C13.6666 10.5475 12.5474 11.6667 11.1666 11.6667C9.78593 11.6667 8.66665 10.5475 8.66665 9.16675V4.16675ZM12 4.16675V9.16675C12 9.62698 11.6269 10.0001 11.1666 10.0001C10.7064 10.0001 10.3333 9.62698 10.3333 9.16675V4.16675C10.3333 3.70651 10.7064 3.33341 11.1666 3.33341C11.6269 3.33341 12 3.70651 12 4.16675Z" fill="#777E91"/>
<path fill-rule="evenodd" clip-rule="evenodd" d="M0.333313 12.5001C0.333313 11.1194 1.4526 10.0001 2.83331 10.0001C4.21402 10.0001 5.33331 11.1194 5.33331 12.5001V14.1667C5.33331 15.5475 4.21402 16.6667 2.83331 16.6667C1.4526 16.6667 0.333313 15.5475 0.333313 14.1667V12.5001ZM3.66665 12.5001V14.1667C3.66665 14.627 3.29355 15.0001 2.83331 15.0001C2.37308 15.0001 1.99998 14.627 1.99998 14.1667V12.5001C1.99998 12.0398 2.37308 11.6667 2.83331 11.6667C3.29355 11.6667 3.66665 12.0398 3.66665 12.5001Z" fill="#777E91"/>
</svg>

